<svg width="602" height="238" viewBox="0 0 602 238" fill="none" xmlns="http://www.w3.org/2000/svg">
<g clip-path="url(#clip0_61_703)">
<path d="M133.773 0H274.257V13.3709H167.218C159.847 13.3709 153.851 19.3355 153.851 26.7135V133.398C153.851 140.757 159.847 146.712 167.218 146.712H274.257V160.046H133.773C122.693 160.046 113.713 151.113 113.713 140.069V20.0328C113.713 8.97989 122.693 0 133.773 0Z" fill="white"/>
<path d="M354.515 13.352C347.125 13.352 341.148 19.3355 341.148 26.7229V133.398C341.148 140.757 347.125 146.712 354.515 146.712C361.904 146.712 367.9 140.757 367.9 133.398V26.7229C367.9 19.3355 361.904 13.352 354.515 13.352ZM408.011 26.5062V26.7324V46.7086V53.5118V63.1325V71.4622V88.4891V96.9319V100.004V113.384V116.984V120.027V133.323C408.011 133.992 408.048 134.623 408.152 135.188V135.32V135.424L408.199 135.528L408.218 135.631V135.725L408.236 135.801L408.255 135.914L408.265 136.018V136.131L408.302 136.187L408.321 136.3L408.359 136.423V136.536L408.406 136.611L408.425 136.8L408.491 136.903C408.519 137.111 408.585 137.28 408.651 137.497L408.773 137.874L408.942 138.232L409.037 138.486C409.093 138.618 409.121 138.76 409.197 138.901L409.328 139.174L409.441 139.344L409.517 139.56L409.592 139.702L409.733 139.928C410.11 140.597 410.514 141.191 410.985 141.784C411.079 141.878 411.192 141.982 411.305 142.114C411.936 142.83 412.604 143.499 413.395 144.055C413.677 144.291 413.988 144.479 414.308 144.668L414.506 144.837C415.447 145.355 416.37 145.817 417.339 146.109C417.499 146.156 417.64 146.222 417.791 146.251C418.13 146.345 421.387 146.628 421.387 146.628C436.439 144.969 448.149 132.248 448.149 116.814C448.149 101.361 436.439 88.6305 421.387 86.9721V73.0264C436.476 71.4245 448.215 58.6472 448.215 43.2128C448.215 29.2859 438.679 17.564 425.802 14.2001C424.785 13.842 423.721 13.5876 422.62 13.4651C422.243 13.418 421.82 13.3615 421.387 13.3615C414.044 13.3803 408.105 19.2318 408.011 26.5062ZM459.36 75.872C476.191 81.8178 488.287 97.8271 488.287 116.72C488.287 140.569 468.962 159.932 445.08 160.055H444.807H421.396H399.783H394.634H354.515H287.595V146.712C295.013 146.712 300.991 140.757 300.991 133.398V26.7229C300.991 19.3355 295.013 13.352 287.595 13.352V0H354.515H408.02H412.83H421.387H441.117C441.39 0 441.673 0 441.927 0.0471138C451.331 0.150764 459.944 3.46757 466.731 8.95162C475.25 15.5852 481.538 25.8843 481.585 39.8394V39.9431V40.0279C481.585 42.4213 481.406 44.5414 481.058 46.5201C478.949 59.3916 470.684 70.1995 459.36 75.872Z" fill="white"/>
<path d="M173.911 80.0087C173.911 50.5625 197.849 26.6758 227.397 26.6758C256.974 26.6758 280.94 50.572 280.94 80.0087C280.94 109.445 256.974 133.389 227.397 133.389C197.849 133.379 173.911 109.445 173.911 80.0087ZM232.415 55.5283C240.802 54.5861 248.445 51.241 254.677 46.2469C248.445 41.2246 240.792 37.9078 232.415 36.9466V55.5283ZM200.155 46.2469C206.406 51.241 214.03 54.5861 222.399 55.5283V36.9561C214.03 37.9078 206.406 41.234 200.155 46.2469ZM222.399 65.5824C211.329 64.5553 201.181 60.1643 193.095 53.4082C188.323 59.4953 185.169 66.9204 184.218 75.024H222.399V65.5824ZM261.756 53.3988C253.651 60.1549 243.522 64.5459 232.415 65.573V75.0146H270.623C269.682 66.9204 266.5 59.4953 261.756 53.3988ZM222.399 104.48C214.03 105.45 206.377 108.767 200.136 113.799C206.377 118.793 214.03 122.11 222.399 123.09V104.48ZM254.677 113.799C248.464 108.767 240.792 105.441 232.415 104.48V123.09C240.792 122.1 248.464 118.793 254.677 113.799ZM232.415 94.4066C243.541 95.4337 253.66 99.8247 261.756 106.59C266.51 100.513 269.682 93.0686 270.623 85.0216H232.415V94.4066ZM193.095 106.6C201.172 99.8341 211.329 95.4431 222.399 94.416V85.031H184.218C185.169 93.078 188.313 100.513 193.095 106.6Z" fill="#F58220"/>
<path d="M0 203.287V195.626H33.9162V203.287H21.5094V237.067H12.4067V203.287H0Z" fill="white"/>
<path d="M47.7726 195.626V211.531H64.5377V195.626H73.631V237.067H64.5377V219.192H47.7726V237.067H38.6699V195.626H47.7726Z" fill="white"/>
<path d="M112.602 195.626V203.287H90.7443V212.172H110.804V219.249H90.7443V229.406H113.063V237.067H81.6416V195.626H112.602Z" fill="white"/>
<path d="M154.811 195.626C156.779 195.626 158.586 195.805 160.205 196.154C161.824 196.502 163.217 197.077 164.375 197.859C165.533 198.651 166.437 199.715 167.067 201.025C167.708 202.344 168.028 203.965 168.028 205.897C168.028 207.989 167.557 209.732 166.606 211.117C165.655 212.511 164.262 213.652 162.408 214.537C164.959 215.272 166.86 216.563 168.122 218.401C169.374 220.248 170.004 222.462 170.004 225.044C170.004 227.136 169.6 228.945 168.79 230.471C167.981 232.007 166.889 233.251 165.514 234.212C164.14 235.183 162.577 235.899 160.817 236.36C159.057 236.822 157.249 237.058 155.395 237.058H135.335V195.616H154.811V195.626ZM153.644 212.408C155.263 212.408 156.6 212.021 157.645 211.249C158.69 210.476 159.207 209.223 159.207 207.48C159.207 206.509 159.038 205.718 158.69 205.096C158.341 204.474 157.88 203.993 157.296 203.645C156.713 203.296 156.054 203.051 155.291 202.919C154.538 202.778 153.757 202.712 152.947 202.712H144.419V212.408H153.644ZM154.171 229.991C155.056 229.991 155.913 229.906 156.722 229.736C157.532 229.557 158.247 229.265 158.868 228.86C159.48 228.455 159.979 227.899 160.346 227.211C160.713 226.523 160.902 225.619 160.902 224.544C160.902 222.415 160.299 220.898 159.104 219.984C157.908 219.079 156.317 218.617 154.35 218.617H144.428V229.991H154.171Z" fill="white"/>
<path d="M196.785 195.626L212.27 237.067H202.819L199.685 227.842H184.2L180.952 237.067H171.793L187.447 195.626H196.785ZM197.303 221.058L192.088 205.85H191.975L186.581 221.058H197.303Z" fill="white"/>
<path d="M224.903 195.626L242.186 223.432H242.299V195.626H250.818V237.067H241.715L224.498 209.327H224.385V237.067H215.857V195.626H224.903Z" fill="white"/>
<path d="M267.931 195.626V212.813L284.103 195.626H295.465L279.293 212.003L297.028 237.067H285.609L273.146 218.438L267.931 223.725V237.067H258.828V195.626H267.931Z" fill="white"/>
<path d="M313.557 203.287V195.626H347.474V203.287H335.067V237.067H325.964V203.287H313.557Z" fill="white"/>
<path d="M351.822 207.904C352.745 205.256 354.082 202.947 355.823 200.969C357.564 198.999 359.701 197.454 362.233 196.323C364.766 195.202 367.618 194.636 370.781 194.636C373.991 194.636 376.852 195.202 379.366 196.323C381.879 197.444 384.006 198.99 385.748 200.969C387.489 202.947 388.817 205.256 389.749 207.904C390.681 210.552 391.142 213.435 391.142 216.526C391.142 219.541 390.681 222.358 389.749 224.968C388.817 227.578 387.489 229.849 385.748 231.79C384.006 233.722 381.879 235.239 379.366 236.342C376.852 237.444 373.991 238 370.781 238C367.609 238 364.756 237.444 362.233 236.342C359.701 235.239 357.564 233.722 355.823 231.79C354.082 229.849 352.754 227.578 351.822 224.968C350.89 222.358 350.429 219.541 350.429 216.526C350.429 213.435 350.89 210.552 351.822 207.904ZM360.144 221.604C360.549 223.253 361.198 224.733 362.083 226.043C362.968 227.362 364.135 228.417 365.556 229.209C366.987 230 368.729 230.396 370.771 230.396C372.823 230.396 374.556 230 375.986 229.209C377.417 228.417 378.575 227.362 379.46 226.043C380.354 224.733 380.994 223.253 381.408 221.604C381.813 219.965 382.02 218.269 382.02 216.526C382.02 214.707 381.813 212.945 381.408 211.249C381.004 209.543 380.354 208.026 379.46 206.688C378.566 205.36 377.408 204.285 375.986 203.494C374.556 202.702 372.814 202.307 370.771 202.307C368.719 202.307 366.987 202.712 365.556 203.494C364.126 204.285 362.968 205.36 362.083 206.688C361.198 208.026 360.549 209.543 360.144 211.249C359.739 212.945 359.532 214.716 359.532 216.526C359.532 218.269 359.73 219.955 360.144 221.604Z" fill="white"/>
<path d="M410.204 203.287V195.626H444.12V203.287H431.713V237.067H422.62V203.287H410.204Z" fill="white"/>
<path d="M471.202 195.626C473.056 195.626 474.723 195.927 476.21 196.53C477.697 197.134 478.977 197.953 480.041 198.999C481.105 200.045 481.914 201.251 482.479 202.627C483.035 204.003 483.317 205.482 483.317 207.065C483.317 209.506 482.809 211.616 481.783 213.388C480.757 215.169 479.09 216.526 476.765 217.458V217.571C477.885 217.882 478.817 218.354 479.552 218.994C480.286 219.635 480.888 220.389 481.35 221.265C481.811 222.132 482.15 223.093 482.366 224.139C482.573 225.185 482.724 226.222 482.799 227.267C482.837 227.927 482.875 228.7 482.912 229.595C482.95 230.481 483.016 231.395 483.119 232.318C483.213 233.251 483.373 234.127 483.581 234.956C483.788 235.795 484.117 236.492 484.541 237.077H475.438C474.93 235.767 474.628 234.193 474.506 232.375C474.393 230.556 474.214 228.813 473.988 227.154C473.678 224.987 473.019 223.395 472.021 222.396C471.014 221.388 469.376 220.888 467.088 220.888H457.986V237.077H448.883V195.635H471.202V195.626ZM467.954 214.377C470.044 214.377 471.607 213.915 472.652 212.983C473.697 212.059 474.214 210.542 474.214 208.46C474.214 206.443 473.697 204.992 472.652 204.078C471.607 203.173 470.044 202.721 467.954 202.721H457.986V214.387H467.954V214.377Z" fill="white"/>
<path d="M521.177 233.901C518.043 236.634 513.713 238 508.187 238C502.586 238 498.246 236.643 495.168 233.929C492.09 231.225 490.556 227.041 490.556 221.397V195.626H499.658V221.397C499.658 222.518 499.753 223.621 499.95 224.705C500.148 225.788 500.553 226.74 501.165 227.578C501.786 228.408 502.642 229.086 503.744 229.604C504.845 230.132 506.323 230.386 508.177 230.386C511.425 230.386 513.665 229.661 514.908 228.21C516.141 226.759 516.762 224.488 516.762 221.388V195.616H525.865V221.388C525.875 227.013 524.312 231.178 521.177 233.901Z" fill="white"/>
<path d="M540.663 226.853C541.162 227.823 541.83 228.606 542.668 229.209C543.496 229.812 544.475 230.254 545.595 230.547C546.716 230.839 547.873 230.98 549.078 230.98C549.888 230.98 550.763 230.914 551.686 230.773C552.618 230.641 553.484 230.377 554.293 229.991C555.103 229.604 555.781 229.067 556.317 228.398C556.863 227.72 557.127 226.862 557.127 225.816C557.127 224.695 556.769 223.781 556.054 223.093C555.338 222.396 554.397 221.812 553.239 221.35C552.081 220.888 550.763 220.483 549.295 220.134C547.826 219.786 546.339 219.399 544.833 218.975C543.289 218.589 541.783 218.118 540.315 217.553C538.846 216.987 537.528 216.271 536.37 215.376C535.213 214.49 534.271 213.369 533.556 212.04C532.84 210.702 532.483 209.091 532.483 207.197C532.483 205.067 532.935 203.221 533.848 201.656C534.761 200.092 535.947 198.782 537.415 197.746C538.884 196.7 540.55 195.927 542.404 195.419C544.259 194.919 546.113 194.665 547.968 194.665C550.133 194.665 552.213 194.91 554.199 195.39C556.185 195.88 557.955 196.653 559.508 197.746C561.052 198.83 562.276 200.215 563.189 201.892C564.093 203.579 564.554 205.614 564.554 208.017H555.743C555.668 206.782 555.404 205.746 554.962 204.936C554.519 204.125 553.926 203.484 553.192 203.023C552.458 202.561 551.62 202.231 550.669 202.033C549.718 201.835 548.692 201.741 547.563 201.741C546.829 201.741 546.094 201.817 545.36 201.977C544.626 202.137 543.957 202.401 543.355 202.787C542.753 203.173 542.263 203.654 541.877 204.238C541.491 204.822 541.294 205.557 541.294 206.443C541.294 207.254 541.444 207.913 541.755 208.422C542.065 208.921 542.677 209.393 543.581 209.817C544.485 210.241 545.746 210.665 547.346 211.089C548.947 211.513 551.046 212.059 553.634 212.719C554.406 212.87 555.479 213.152 556.854 213.557C558.228 213.963 559.593 214.613 560.939 215.508C562.295 216.394 563.462 217.59 564.45 219.079C565.439 220.568 565.928 222.471 565.928 224.789C565.928 226.683 565.561 228.445 564.827 230.066C564.093 231.687 563.001 233.091 561.551 234.269C560.101 235.446 558.303 236.37 556.157 237.029C554.011 237.689 551.526 238.019 548.711 238.019C546.433 238.019 544.221 237.736 542.075 237.171C539.929 236.615 538.037 235.729 536.399 234.532C534.751 233.336 533.452 231.809 532.483 229.953C531.513 228.087 531.052 225.882 531.09 223.338H539.9C539.91 224.714 540.164 225.892 540.663 226.853Z" fill="white"/>
<path d="M568.084 203.287V195.626H602V203.287H589.593V237.067H580.49V203.287H568.084Z" fill="white"/>
</g>
<defs>
<clipPath id="clip0_61_703">
<rect width="602" height="238" fill="white"/>
</clipPath>
</defs>
</svg>
