<svg width="136" height="63" viewBox="0 0 136 63" fill="none" xmlns="http://www.w3.org/2000/svg">
<g clip-path="url(#clip0_79_1442)">
<path d="M1.03217 45.2861C1.03217 44.8828 0.974288 44.5873 0.863354 44.395C0.747597 44.2027 0.52573 44.1042 0.183282 44.1042H0V43.7994H4.9872C5.67692 43.7994 6.01936 44.1136 6.01936 44.7421V45.6988H5.70586C5.70586 45.2204 5.58045 44.8687 5.32482 44.6436C5.06919 44.4185 4.69298 44.3059 4.19137 44.3059H2.40678V47.359H5.1126V47.8656H2.40196V51.58H1.03217V45.2861Z" fill="#F1EFDC"/>
<path d="M8.64795 51.2798C8.05952 50.9187 7.60131 50.4216 7.27816 49.7931C6.955 49.1647 6.79102 48.4659 6.79102 47.692C6.79102 46.9229 6.95018 46.2194 7.27816 45.5909C7.60131 44.9625 8.05952 44.4653 8.64795 44.1042C9.23638 43.7431 9.91645 43.5602 10.6882 43.5602C11.4647 43.5602 12.1496 43.7431 12.738 44.1042C13.3265 44.4653 13.7847 44.9625 14.1078 45.5909C14.431 46.2194 14.595 46.9182 14.595 47.692C14.595 48.4612 14.431 49.1647 14.1078 49.7931C13.7847 50.4216 13.3265 50.9187 12.738 51.2798C12.1496 51.641 11.4647 51.8239 10.6882 51.8239C9.92128 51.8239 9.24121 51.641 8.64795 51.2798ZM12.4631 50.3606C12.8875 49.7228 13.0998 48.8364 13.0998 47.6967C13.0998 46.5571 12.8875 45.666 12.4631 45.0328C12.0387 44.395 11.4454 44.0761 10.6882 44.0761C9.9261 44.0761 9.33767 44.395 8.91805 45.0328C8.49843 45.6707 8.28621 46.5571 8.28621 47.6967C8.28621 48.8364 8.49843 49.7275 8.91805 50.3606C9.33767 50.9984 9.93092 51.3173 10.6882 51.3173C11.4454 51.3173 12.0387 50.9984 12.4631 50.3606Z" fill="#F1EFDC"/>
<path d="M17.4312 51.2798C16.8427 50.9187 16.3845 50.4216 16.0614 49.7931C15.7382 49.1647 15.5742 48.4659 15.5742 47.692C15.5742 46.9229 15.7334 46.2194 16.0614 45.5909C16.3845 44.9625 16.8427 44.4653 17.4312 44.1042C18.0196 43.7431 18.6997 43.5602 19.4714 43.5602C20.2479 43.5602 20.9328 43.7431 21.5212 44.1042C22.1097 44.4653 22.5679 44.9625 22.891 45.5909C23.2142 46.2194 23.3782 46.9182 23.3782 47.692C23.3782 48.4612 23.2142 49.1647 22.891 49.7931C22.5679 50.4216 22.1097 50.9187 21.5212 51.2798C20.9328 51.641 20.2479 51.8239 19.4714 51.8239C18.7045 51.8239 18.0244 51.641 17.4312 51.2798ZM21.2463 50.3606C21.6708 49.7228 21.883 48.8364 21.883 47.6967C21.883 46.5571 21.6708 45.666 21.2463 45.0328C20.8219 44.395 20.2286 44.0761 19.4714 44.0761C18.7093 44.0761 18.1209 44.395 17.7013 45.0328C17.2816 45.6707 17.0694 46.5571 17.0694 47.6967C17.0694 48.8364 17.2816 49.7275 17.7013 50.3606C18.1209 50.9984 18.7141 51.3173 19.4714 51.3173C20.2286 51.3173 20.8219 50.9984 21.2463 50.3606Z" fill="#F1EFDC"/>
<path d="M24.989 45.2861C24.989 44.8828 24.9311 44.5873 24.8201 44.395C24.7044 44.2027 24.4825 44.1042 24.1401 44.1042H23.9568V43.7994H27.2076C28.8186 43.7994 30.0389 44.1371 30.8733 44.8124C31.7077 45.4878 32.1225 46.4304 32.1225 47.6451C32.1225 48.4237 31.9488 49.1084 31.5968 49.704C31.2447 50.2996 30.7237 50.7592 30.034 51.0922C29.3443 51.4205 28.5051 51.5894 27.5308 51.5894H24.9938V45.2861H24.989ZM29.0404 50.7217C29.5035 50.4403 29.8604 50.0417 30.1208 49.5164C30.3813 48.9958 30.5115 48.3861 30.5115 47.692C30.5115 47.0073 30.3813 46.407 30.1208 45.8864C29.8604 45.3658 29.5035 44.9625 29.0404 44.6764C28.5774 44.3903 28.0517 44.2449 27.4633 44.2449C27.1546 44.2449 26.7928 44.2871 26.3732 44.3762V51.0313C26.6144 51.0782 26.8121 51.1063 26.9616 51.1204C27.1112 51.1344 27.2896 51.1391 27.4874 51.1391C28.0613 51.1391 28.5822 50.9984 29.0404 50.7217Z" fill="#F1EFDC"/>
<path d="M36.8444 45.2861C36.8444 44.8828 36.7865 44.5873 36.6756 44.395C36.5599 44.2027 36.3332 44.1042 35.9955 44.1042H35.8123V43.7994H41.0888C41.7737 43.7994 42.121 44.1136 42.121 44.7421V45.6988H41.8075C41.8075 44.7702 41.3011 44.3059 40.293 44.3059H38.219V47.3028H41.4216V47.8093H38.219V51.0782H40.3171C40.8187 51.0782 41.2239 50.9797 41.5277 50.7827C41.8364 50.5857 42.0921 50.2434 42.2898 49.7556L42.5792 49.8494L42.1934 50.853C42.1065 51.0969 41.986 51.2798 41.8413 51.4018C41.6966 51.5237 41.4795 51.5847 41.1998 51.5847H36.8444V45.2861Z" fill="#F1EFDC"/>
<path d="M46.1821 47.8468L44.4699 45.333C43.9297 44.5169 43.3461 44.0808 42.7239 44.0339V43.7994H44.1081C44.494 43.7994 44.8413 43.9213 45.1403 44.1652C45.4393 44.4091 45.7143 44.7186 45.9651 45.0985L47.0937 46.7634L49.4715 43.8041H50.1757L47.4217 47.2371L49.3365 50.0558C49.5728 50.4028 49.8381 50.6983 50.1323 50.9468C50.4265 51.1954 50.7256 51.3314 51.0246 51.3549V51.5894H49.7127C49.023 51.5894 48.4008 51.1579 47.8461 50.2903L46.5246 48.3345L43.9056 51.5894H43.1917L46.1821 47.8468Z" fill="#F1EFDC"/>
<path d="M52.0183 45.2861C52.0183 44.8828 51.9604 44.5873 51.8494 44.395C51.7337 44.2027 51.507 44.1042 51.1694 44.1042H50.9861V43.7994H54.2514C55.0617 43.7994 55.79 43.9588 56.446 44.2824C57.1019 44.606 57.4299 45.2345 57.4299 46.1678C57.4299 46.7822 57.2611 47.2559 56.9186 47.5889C56.581 47.9218 56.2 48.147 55.7804 48.2548C55.3607 48.3627 54.9701 48.419 54.618 48.419H53.3929V51.58H52.0231V45.2861H52.0183ZM54.1887 47.9781C54.6517 47.9781 55.052 47.8327 55.4041 47.5373C55.7514 47.2418 55.925 46.7681 55.925 46.1162C55.925 45.4643 55.7514 44.9906 55.409 44.6952C55.0665 44.3997 54.671 44.2543 54.2273 44.2543C54.0151 44.2543 53.7401 44.2871 53.388 44.3481V47.9828H54.1887V47.9781Z" fill="#F1EFDC"/>
<path d="M60.0344 51.2798C59.446 50.9187 58.9878 50.4216 58.6646 49.7931C58.3415 49.1647 58.1775 48.4659 58.1775 47.692C58.1775 46.9229 58.3367 46.2194 58.6646 45.5909C58.9878 44.9625 59.446 44.4653 60.0344 44.1042C60.6229 43.7431 61.3029 43.5602 62.0746 43.5602C62.8512 43.5602 63.5361 43.7431 64.1245 44.1042C64.7129 44.4653 65.1711 44.9625 65.4943 45.5909C65.8174 46.2194 65.9814 46.9182 65.9814 47.692C65.9814 48.4612 65.8174 49.1647 65.4943 49.7931C65.1711 50.4216 64.7129 50.9187 64.1245 51.2798C63.5361 51.641 62.8512 51.8239 62.0746 51.8239C61.3077 51.8239 60.6277 51.641 60.0344 51.2798ZM63.8544 50.3606C64.2788 49.7228 64.4911 48.8364 64.4911 47.6967C64.4911 46.5571 64.2788 45.666 63.8544 45.0328C63.43 44.395 62.8367 44.0761 62.0795 44.0761C61.3174 44.0761 60.729 44.395 60.3093 45.0328C59.8897 45.6707 59.6775 46.5571 59.6775 47.6967C59.6775 48.8364 59.8897 49.7275 60.3093 50.3606C60.729 50.9984 61.3222 51.3173 62.0795 51.3173C62.8367 51.3173 63.43 50.9984 63.8544 50.3606Z" fill="#F1EFDC"/>
<path d="M71.9236 51.322C71.5764 51.0641 71.2098 50.6232 70.8191 49.9948L69.6037 48.0109H68.9718V51.5847H67.5876V45.2861C67.5876 44.8828 67.5297 44.5873 67.4188 44.395C67.303 44.2027 67.0763 44.1042 66.7387 44.1042H66.5554V43.7994H69.8304C70.631 43.7994 71.3593 43.9448 72.0201 44.2402C72.6809 44.5357 73.0089 45.0938 73.0089 45.9192C73.0089 46.5102 72.8256 46.9557 72.4638 47.2652C72.1021 47.5701 71.6246 47.7905 71.0458 47.9265L72.3192 49.9901C72.6037 50.4544 72.869 50.7827 73.1198 50.975C73.3706 51.1673 73.6262 51.2798 73.8819 51.3127V51.5847C73.8095 51.6175 73.6938 51.6456 73.5442 51.6691C73.3899 51.6925 73.2356 51.7019 73.0812 51.7019C72.6616 51.7019 72.2757 51.5753 71.9236 51.322ZM69.7677 47.5654C70.0426 47.5654 70.3127 47.5091 70.5828 47.4013C70.8481 47.2934 71.0699 47.1105 71.2484 46.8666C71.4269 46.618 71.5137 46.3038 71.5137 45.9145C71.5137 45.53 71.4269 45.211 71.2484 44.9672C71.0699 44.7186 70.8481 44.5404 70.5876 44.4231C70.3272 44.3106 70.0571 44.2496 69.7821 44.2496C69.5892 44.2496 69.3191 44.2824 68.9815 44.3434V47.5654H69.7677V47.5654Z" fill="#F1EFDC"/>
<path d="M76.6793 44.3059H75.7243C75.2565 44.3059 74.8996 44.4184 74.6488 44.6342C74.4028 44.8546 74.2774 45.2064 74.2774 45.6941H73.9639V44.7374C73.9639 44.1089 74.3063 43.7947 74.996 43.7947H80.6729V44.3012H78.0539V51.58H76.6842V44.3059H76.6793Z" fill="#F1EFDC"/>
<path d="M86.0942 51.2986C85.5058 50.9468 85.0524 50.4685 84.7437 49.8588C84.4302 49.2491 84.2759 48.569 84.2759 47.814C84.2759 47.0354 84.4495 46.3226 84.792 45.6707C85.1344 45.0235 85.6071 44.5076 86.2052 44.1324C86.8032 43.7572 87.464 43.5649 88.1827 43.5649C88.8627 43.5649 89.4463 43.654 89.9287 43.8322C90.4158 44.0104 90.7775 44.2402 91.0187 44.5216C91.1538 44.6952 91.2406 44.9109 91.2743 45.1782C91.3081 45.4409 91.3226 45.8161 91.3226 46.3038H91.0091C90.7004 44.8171 89.8804 44.0761 88.5444 44.0761C87.6955 44.0761 87.0203 44.3669 86.5187 44.9484C86.0171 45.53 85.7663 46.4867 85.7663 47.814C85.7663 48.4424 85.8627 49.0193 86.0556 49.5492C86.2486 50.0745 86.5573 50.5013 86.972 50.8296C87.3868 51.1579 87.9126 51.3174 88.5444 51.3174C89.1184 51.3174 89.6344 51.172 90.0975 50.8859C90.5605 50.5998 90.9415 50.1824 91.2502 49.643L91.6023 49.901C91.2213 50.5763 90.7582 51.0688 90.2132 51.3689C89.6682 51.6738 88.9881 51.8239 88.1827 51.8239C87.382 51.8239 86.6827 51.6456 86.0942 51.2986Z" fill="#F1EFDC"/>
<path d="M94.3081 51.2798C93.7197 50.9187 93.2615 50.4216 92.9383 49.7931C92.6152 49.1647 92.4512 48.4659 92.4512 47.692C92.4512 46.9229 92.6103 46.2194 92.9383 45.5909C93.2615 44.9625 93.7197 44.4653 94.3081 44.1042C94.8965 43.7431 95.5766 43.5602 96.3483 43.5602C97.1249 43.5602 97.8098 43.7431 98.3982 44.1042C98.9866 44.4653 99.4448 44.9625 99.768 45.5909C100.091 46.2194 100.255 46.9182 100.255 47.692C100.255 48.4612 100.091 49.1647 99.768 49.7931C99.4448 50.4216 98.9866 50.9187 98.3982 51.2798C97.8098 51.641 97.1249 51.8239 96.3483 51.8239C95.5766 51.8239 94.8965 51.641 94.3081 51.2798ZM98.1233 50.3606C98.5477 49.7228 98.7599 48.8364 98.7599 47.6967C98.7599 46.5571 98.5477 45.666 98.1233 45.0328C97.6988 44.395 97.1056 44.0761 96.3483 44.0761C95.5863 44.0761 94.9978 44.395 94.5782 45.0328C94.1586 45.6707 93.9464 46.5571 93.9464 47.6967C93.9464 48.8364 94.1586 49.7275 94.5782 50.3606C94.9978 50.9984 95.5911 51.3173 96.3483 51.3173C97.1056 51.3173 97.6988 50.9984 98.1233 50.3606Z" fill="#F1EFDC"/>
<path d="M102.604 50.8437C102.093 50.2715 101.842 49.3898 101.842 48.2032V45.2908C101.842 44.9062 101.789 44.6154 101.678 44.4184C101.567 44.2215 101.36 44.1183 101.051 44.1136H100.892V43.8087H102.117C102.406 43.8087 102.628 43.851 102.783 43.9401C102.937 44.0292 103.043 44.1746 103.111 44.3809C103.173 44.5873 103.207 44.8921 103.207 45.2955L103.221 48.5644C103.236 50.3278 103.906 51.2048 105.233 51.2048C106.091 51.2048 106.709 50.9656 107.085 50.4919C107.461 50.0182 107.649 49.2538 107.649 48.2079V43.8087H108.209V48.2079C108.209 48.9958 108.107 49.643 107.91 50.1542C107.712 50.6654 107.384 51.0547 106.921 51.3173C106.458 51.58 105.831 51.7113 105.04 51.7113C103.926 51.7019 103.115 51.4158 102.604 50.8437Z" fill="#F1EFDC"/>
<path d="M110.881 45.605V51.5847H110.321V45.2157C110.321 44.864 110.239 44.5873 110.071 44.395C109.907 44.2027 109.622 44.1042 109.226 44.1042H109.14V43.7994H109.969C110.389 43.7994 110.736 43.8603 111.011 43.9776C111.286 44.0948 111.522 44.2731 111.715 44.5076L115.926 49.3898V43.7994H116.485V51.655H116.047L110.881 45.605Z" fill="#F1EFDC"/>
<path d="M119.736 51.2986C119.148 50.9468 118.694 50.4685 118.386 49.8588C118.072 49.2491 117.918 48.569 117.918 47.814C117.918 47.0354 118.091 46.3226 118.434 45.6707C118.776 45.0235 119.249 44.5076 119.847 44.1324C120.445 43.7572 121.106 43.5649 121.825 43.5649C122.505 43.5649 123.088 43.654 123.571 43.8322C124.058 44.0104 124.419 44.2402 124.661 44.5216C124.796 44.6952 124.882 44.9109 124.916 45.1782C124.95 45.4409 124.964 45.8161 124.964 46.3038H124.651C124.342 44.8171 123.522 44.0761 122.186 44.0761C121.337 44.0761 120.662 44.3669 120.161 44.9484C119.659 45.53 119.408 46.4867 119.408 47.814C119.408 48.4424 119.505 49.0193 119.697 49.5492C119.89 50.0745 120.199 50.5013 120.614 50.8296C121.029 51.1579 121.554 51.3174 122.186 51.3174C122.76 51.3174 123.276 51.172 123.739 50.8859C124.202 50.5998 124.583 50.1824 124.892 49.643L125.244 49.901C124.863 50.5763 124.4 51.0688 123.855 51.3689C123.31 51.6738 122.63 51.8239 121.825 51.8239C121.019 51.8239 120.325 51.6456 119.736 51.2986Z" fill="#F1EFDC"/>
<path d="M127.024 51.4627C126.87 51.3783 126.764 51.2329 126.696 51.0219C126.633 50.8108 126.6 50.5013 126.6 50.1027V43.7994H127.984V50.098C127.984 50.5013 128.042 50.7968 128.153 50.9891C128.264 51.1813 128.49 51.2798 128.833 51.2798H129.002V51.5847H127.69C127.4 51.5847 127.178 51.5472 127.024 51.4627Z" fill="#F1EFDC"/>
<path d="M130.4 45.2861C130.4 44.8828 130.342 44.5873 130.232 44.395C130.116 44.2027 129.894 44.1042 129.551 44.1042H129.368V43.7994H130.68C130.969 43.7994 131.191 43.8416 131.346 43.9307C131.5 44.0198 131.606 44.1652 131.674 44.3716C131.736 44.5779 131.77 44.8828 131.77 45.2861V51.0782H136.005V51.5847H130.4V45.2861V45.2861Z" fill="#F1EFDC"/>
<path d="M54.4204 58.1741C54.4204 57.8833 54.377 57.6628 54.2853 57.5221C54.1985 57.3815 54.02 57.3111 53.7548 57.3111H53.5667V57.1376H57.6037C58.1391 57.1376 58.4092 57.3674 58.4092 57.827V58.4742H58.221C58.221 57.8129 57.8255 57.4846 57.0345 57.4846H55.2692V59.7264H57.8304V60.0688H55.2692V62.4794H56.9284C57.3625 62.4794 57.705 62.4091 57.9509 62.2637C58.1969 62.1183 58.3947 61.8744 58.5394 61.532L58.7275 61.5743L58.3947 62.395C58.2789 62.6811 58.0426 62.8265 57.6857 62.8265H54.4155V58.1741H54.4204Z" fill="#F1EFDC"/>
<path d="M60.9895 62.5873C60.4975 62.3106 60.1165 61.9354 59.8416 61.4617C59.5666 60.988 59.4268 60.4674 59.4268 59.9C59.4268 59.3559 59.5473 58.8588 59.7885 58.4133C60.0297 57.9677 60.3721 57.616 60.8158 57.358C61.2596 57.1001 61.7805 56.9688 62.3641 56.9688C62.9091 56.9688 63.377 57.0344 63.7725 57.161C64.168 57.2924 64.4574 57.4565 64.6406 57.6582C64.7419 57.7754 64.8046 57.9255 64.8336 58.1131C64.8625 58.3007 64.877 58.5399 64.877 58.8213H64.6889C64.5683 58.3148 64.3416 57.9396 64.004 57.6863C63.6712 57.4377 63.2178 57.3111 62.6487 57.3111C62.1374 57.3111 61.7081 57.4331 61.3705 57.6769C61.0281 57.9208 60.7773 58.2397 60.6181 58.629C60.4589 59.0183 60.3769 59.4403 60.3769 59.8953C60.3769 60.8661 60.5843 61.5696 61.0039 62.0011C61.4187 62.4325 61.9686 62.653 62.6535 62.653C62.9766 62.653 63.2516 62.6295 63.4783 62.5732C63.7049 62.5216 63.922 62.4466 64.1246 62.3481V60.8473C64.1246 60.6504 64.1583 60.4815 64.2307 60.3408C64.2982 60.1954 64.4525 60.0782 64.6792 59.9844C64.9107 59.8906 65.2484 59.8437 65.6873 59.8437V60.0172C65.4027 60.0172 65.2146 60.0829 65.1181 60.2142C65.0217 60.3455 64.9734 60.5519 64.9734 60.8333V62.4513C64.631 62.6389 64.2741 62.7796 63.9027 62.864C63.5313 62.9484 63.1117 62.9953 62.6535 62.9953C62.0313 63 61.4766 62.864 60.9895 62.5873Z" fill="#F1EFDC"/>
<path d="M68.4753 60.4768L66.8644 58.2632C66.7004 58.0521 66.5605 57.8833 66.4496 57.7613C66.3338 57.6394 66.1988 57.5409 66.0444 57.4565C65.8901 57.3721 65.7068 57.3252 65.4897 57.3158V57.1423H66.3435C66.6618 57.1423 66.9271 57.2267 67.1393 57.3955C67.3563 57.5644 67.5637 57.7942 67.7663 58.0896L69.1409 60.0266L71.1232 57.1423H71.5477L69.329 60.4159V62.8265H68.4753V60.4768Z" fill="#F1EFDC"/>
<path d="M72.6811 58.1741C72.6811 57.8833 72.6377 57.6628 72.5461 57.5221C72.4592 57.3815 72.2808 57.3111 72.0155 57.3111H71.8274V57.1376H74.2921C74.8998 57.1376 75.4448 57.2548 75.9319 57.4893C76.4191 57.7238 76.6603 58.1834 76.6603 58.8588C76.6603 59.309 76.5348 59.6514 76.2792 59.8906C76.0284 60.1298 75.7438 60.2939 75.4303 60.3736C75.1168 60.4534 74.8323 60.4956 74.5718 60.4956H73.53V62.8218H72.6763V58.1741H72.6811ZM74.2486 60.2001C74.4512 60.2001 74.6634 60.1532 74.895 60.0594C75.1216 59.9656 75.3194 59.8155 75.4786 59.6092C75.6377 59.4028 75.7197 59.1402 75.7197 58.826C75.7197 58.5117 75.6377 58.2491 75.4786 58.0427C75.3194 57.8364 75.1216 57.6863 74.895 57.5925C74.6683 57.4987 74.4512 57.4518 74.2486 57.4518C74.0268 57.4518 73.7904 57.4799 73.5396 57.5362V60.2048H74.2486V60.2001Z" fill="#F1EFDC"/>
<path d="M79.337 57.4846H78.4833C77.6923 57.4846 77.2967 57.8129 77.2967 58.4742H77.1086V57.827C77.1086 57.3674 77.3787 57.1376 77.9141 57.1376H82.3225V57.4799H80.1907V62.8218H79.337V57.4846Z" fill="#F1EFDC"/>
<path d="M136 60.9833H86.9238V61.7994H136V60.9833Z" fill="#F1EFDC"/>
<path d="M49.0761 60.9833H0V61.7994H49.0761V60.9833Z" fill="#F1EFDC"/>
<path d="M50.0795 14.8483C50.0795 14.8483 49.602 14.6467 49.438 14.1683C49.2065 13.507 49.2017 12.2501 50.4171 10.6602C51.8158 8.83114 53.3786 7.4523 53.3786 7.4523C53.3786 7.4523 53.4991 9.61905 52.6165 12.7003C51.9075 15.1766 50.5377 15.0078 50.0795 14.8483Z" fill="#F1EFDC"/>
<path d="M51.9557 16.0021C51.9557 16.0021 51.7676 15.5471 51.9702 15.0266C52.2258 14.37 52.9975 13.3757 54.9654 12.8504C57.2275 12.2501 59.3304 12.1 59.3304 12.1C59.3304 12.1 58.0474 13.8775 55.4043 15.7723C53.2773 17.3012 52.11 16.4242 51.9557 16.0021Z" fill="#F1EFDC"/>
<path d="M56.4025 11.1058C56.4025 11.1058 56.2096 10.754 56.3446 10.3835C56.5279 9.86295 57.1501 9.08911 58.6935 8.67639C60.4685 8.20271 62.1228 8.09015 62.1228 8.09015C62.1228 8.09015 61.1196 9.48775 59.0408 10.9745C57.372 12.1657 56.6099 11.42 56.4025 11.1058Z" fill="#F1EFDC"/>
<path d="M54.8929 10.1115C54.8929 10.1115 54.5215 9.94737 54.3913 9.57686C54.2128 9.05628 54.2128 8.07139 55.1774 6.82856C56.2868 5.39812 57.5215 4.32413 57.5215 4.32413C57.5215 4.32413 57.6035 6.02658 56.8993 8.43721C56.3302 10.3788 55.2546 10.2381 54.8929 10.1115Z" fill="#F1EFDC"/>
<path d="M59.0121 7.25534C59.0121 7.25534 58.5683 6.86138 58.5635 6.27514C58.5587 5.46378 59.0314 4.08024 60.9703 2.77175C63.2034 1.26159 65.4462 0.30484 65.4462 0.30484C65.4462 0.30484 64.7565 2.72954 62.6198 5.80145C60.9028 8.26836 59.4606 7.59301 59.0121 7.25534Z" fill="#F1EFDC"/>
<path d="M44.5569 20.3825C44.5569 20.3825 44.1035 20.1808 43.8286 19.5946C43.4814 18.8395 43.4765 17.5075 44.9621 15.4346C46.5827 13.1787 48.4541 11.5748 48.4541 11.5748C48.4541 11.5748 48.6663 13.7181 47.7161 17.3856C46.9878 20.1761 45.2129 20.5935 44.5569 20.3825Z" fill="#F1EFDC"/>
<path d="M46.9395 21.8598C46.9395 21.8598 46.5295 21.3345 46.6742 20.7061C46.8575 19.8947 47.8173 18.8723 50.2965 18.1172C52.9444 17.3106 55.438 17.1089 55.438 17.1089C55.438 17.1089 53.9766 19.2475 50.9042 21.5643C48.4395 23.4262 47.2868 22.2115 46.9395 21.8598Z" fill="#F1EFDC"/>
<path d="M45.7192 20.7342C45.7192 20.7342 38.4651 29.3356 37.7947 39.5315H39.1355C39.1355 39.5315 39.1789 31.2678 45.7192 20.7342Z" fill="#F1EFDC"/>
<path d="M35.5036 39.4706C35.7448 35.8312 36.7818 32.4169 38.0358 29.4951L28.1917 39.5315H35.4988L35.5036 39.4706Z" fill="#F1EFDC"/>
<path d="M93.5318 39.3486C93.416 39.4143 93.2955 39.4706 93.1701 39.5268H107.447L95.4273 27.8395C95.437 27.9052 95.4563 27.9661 95.4611 28.0318C95.519 28.5242 95.5479 29.2043 95.5479 30.086H94.8823C94.6025 28.7587 94.0816 27.7504 93.3244 27.061C92.5672 26.3716 91.5832 26.0245 90.3678 26.0245C88.8581 26.0245 87.662 26.5451 86.789 27.5816C85.916 28.618 85.4771 30.3674 85.4771 32.8343C85.4771 34.6634 85.8774 36.1829 86.678 37.3929C87.4787 38.6029 88.7086 39.2079 90.3678 39.2079C91.4048 39.2079 92.3549 38.9406 93.2231 38.406C94.0913 37.8713 94.7907 37.1115 95.3212 36.1173L96.0977 36.6988C95.3984 37.9135 94.535 38.7952 93.5318 39.3486Z" fill="#F1EFDC"/>
<path d="M65.8801 25.4851C67.139 25.4851 67.7708 26.062 67.7708 27.2157V29.0542H67.1052C67.1052 28.1443 66.8737 27.4878 66.4058 27.075C65.938 26.6623 65.2483 26.4607 64.327 26.4607H61.2354V31.9713H66.1261V32.9422H61.2354V39.5315H70.3271V28.2944C70.3271 27.5581 70.2258 27.0141 70.0184 26.6623C69.811 26.3106 69.3962 26.1324 68.774 26.1324H68.5522V25.4851H78.3529C79.6118 25.4851 80.2436 26.062 80.2436 27.2157V29.0542H79.578C79.578 28.1631 79.3465 27.5065 78.8786 27.0891C78.4108 26.6717 77.7163 26.4607 76.7998 26.4607H73.221V31.8635H78.9992V32.8343H73.2162V38.7764H77.0169C77.861 38.7764 78.5651 38.5935 79.1295 38.223C79.6938 37.8572 80.1616 37.2194 80.5282 36.3095L81.1263 36.5253L80.48 38.2324C80.287 38.753 80.0555 39.1329 79.7902 39.3768C79.7275 39.433 79.66 39.4799 79.5828 39.5221H86.3739C86.1617 39.4283 85.9543 39.3252 85.7614 39.2126C84.6569 38.5701 83.8176 37.6978 83.2388 36.5862C82.66 35.4747 82.3707 34.2225 82.3707 32.8249C82.3707 31.3851 82.689 30.0672 83.3256 28.8807C83.9623 27.6941 84.8401 26.7561 85.9591 26.0714C87.0781 25.3867 88.3273 25.0443 89.7068 25.0443C91.009 25.0443 92.0991 25.2084 92.9721 25.532C93.0251 25.5508 93.0685 25.5743 93.1216 25.5977L66.7917 0L57.917 25.4851H65.8801Z" fill="#F1EFDC"/>
<path d="M58.3464 28.2944C58.3464 27.5581 58.2403 27.0141 58.0329 26.6623C57.9412 26.5075 57.8062 26.395 57.6325 26.3059L53.0264 39.5268H58.3415V28.2944H58.3464Z" fill="#F1EFDC"/>
</g>
<defs>
<clipPath id="clip0_79_1442">
<rect width="136" height="63" fill="white"/>
</clipPath>
</defs>
</svg>
