<svg width="36" height="36" viewBox="0 0 36 36" fill="none" xmlns="http://www.w3.org/2000/svg">
<path d="M22.0005 18C22.0005 20.2095 20.2095 22.0005 18 22.0005C15.7905 22.0005 13.9995 20.211 13.9995 18C13.9995 15.7905 15.7905 13.9995 18 13.9995C20.2095 13.9995 22.0005 15.7905 22.0005 18ZM27.7695 13.152C27.8265 14.4165 27.8385 14.796 27.8385 18C27.8385 21.204 27.8265 21.5835 27.7695 22.8495C27.6195 26.0745 26.106 27.621 22.851 27.768C21.585 27.825 21.2055 27.8385 18 27.8385C14.796 27.8385 14.415 27.8265 13.152 27.7695C9.891 27.621 8.3805 26.0715 8.2335 22.851C8.175 21.5835 8.1615 21.204 8.1615 18C8.1615 14.796 8.175 14.4165 8.232 13.152C8.3805 9.924 9.8955 8.3805 13.1505 8.2335C14.4165 8.175 14.796 8.163 18 8.163C21.204 8.163 21.585 8.175 22.8495 8.232C26.1015 8.3805 27.6195 9.924 27.7695 13.152ZM24.162 18C24.162 14.5965 21.402 11.838 18 11.838C14.5965 11.838 11.838 14.5965 11.838 18C11.838 21.4035 14.598 24.162 18 24.162C21.4035 24.162 24.162 21.4035 24.162 18ZM25.845 11.595C25.845 10.8 25.2 10.155 24.405 10.155C23.61 10.155 22.965 10.8 22.965 11.595C22.965 12.39 23.61 13.035 24.405 13.035C25.2015 13.035 25.845 12.39 25.845 11.595ZM30 0C33.3137 0 36 2.68629 36 6V30C36 33.3137 33.3137 36 30 36H6C2.68629 36 0 33.3137 0 30V6C0 2.68629 2.68629 0 6 0H30ZM30 18C30 14.742 29.9865 14.3325 29.928 13.053C29.7315 8.7 27.3105 6.273 22.9485 6.0735C21.6675 6.0135 21.2595 6 18 6C14.7405 6 14.334 6.0135 13.053 6.072C8.694 6.2715 6.273 8.6895 6.072 13.0515C6.0135 14.3325 6 14.742 6 18C6 21.2595 6.0135 21.6675 6.072 22.947C6.273 27.306 8.691 29.7285 13.053 29.928C14.334 29.9865 14.7405 30 18 30C21.2595 30 21.6675 29.9865 22.9485 29.928C27.3015 29.7285 29.7315 27.3105 29.928 22.947C29.9865 21.6675 30 21.2595 30 18Z" fill="#F1EFDC"/>
</svg>
