<svg width="36" height="36" viewBox="0 0 36 36" fill="none" xmlns="http://www.w3.org/2000/svg">
<path d="M15 13.9995L22.9995 17.9925L15 22.0005V13.9995ZM30 0C33.3137 0 36 2.68629 36 6V30C36 33.3137 33.3137 36 30 36H6C2.68629 36 0 33.3137 0 30V6C0 2.68629 2.68629 0 6 0H30ZM30 18C29.97 11.8155 29.5155 9.45 25.6155 9.1845C22.011 8.9385 13.9845 8.94 10.386 9.1845C6.489 9.45 6.03 11.805 6 18C6.03 24.1845 6.4845 26.55 10.3845 26.8155C13.983 27.06 22.0095 27.0615 25.614 26.8155C29.511 26.55 29.97 24.195 30 18Z" fill="#F1EFDC"/>
</svg>
